<svg xmlns="http://www.w3.org/2000/svg" x="0px" y="0px" viewBox="0 0 100 100" xml:space="preserve">
    <g>
        <polygon fill="none" points="28.841,18.021 20.263,18.021 20.263,35.204 28.841,26.566"/>
        <path fill="none"
              d="M50.669,8.865L8.917,50.904c-0.304,0.307-0.207,0.65-0.152,0.783c0.056,0.134,0.231,0.446,0.663,0.446h6.654   v38.812h8.69v-20.81c0-3.065,1.663-5.922,4.339-7.454l0.642-0.367l-0.579-0.458c-2.502-1.984-3.938-4.939-3.938-8.107   c0-5.705,4.642-10.347,10.347-10.347c5.706,0,10.348,4.642,10.348,10.347c0,3.169-1.436,6.124-3.938,8.107l-0.579,0.459   l0.642,0.367c1.282,0.733,2.36,1.791,3.117,3.059l0.226,0.376l0.402-0.174c1.205-0.521,2.509-0.768,3.809-0.673l0.646,0.043v-1.82   c0-4.04,2.431-7.628,6.193-9.141l0.922-0.371l-0.847-0.52c-3.584-2.197-5.724-6-5.724-10.17c0-6.581,5.354-11.934,11.935-11.934   c6.58,0,11.934,5.354,11.934,11.934c0,4.171-2.14,7.973-5.724,10.17l-0.848,0.52l0.923,0.371c3.766,1.513,6.199,5.101,6.199,9.141   v27.452h9.162V52.133h6.16c0.444,0,0.626-0.314,0.683-0.45c0.058-0.134,0.156-0.481-0.15-0.796L50.669,8.865z"/>
        <path fill="none"
              d="M71.655,43.292c0-4.919-4.002-8.921-8.921-8.921c-4.92,0-8.922,4.002-8.922,8.921s4.002,8.921,8.922,8.921   C67.653,52.212,71.655,48.21,71.655,43.292z"/>
        <path fill="none"
              d="M35.583,46.414c-4.044,0-7.334,3.29-7.334,7.333s3.29,7.334,7.334,7.334c4.045,0,7.335-3.29,7.335-7.334   S39.628,46.414,35.583,46.414z"/>
        <path fill="none"
              d="M49.159,68.261c-3.031,0-5.497,2.466-5.497,5.497s2.466,5.497,5.497,5.497c3.03,0,5.496-2.466,5.496-5.497   S52.189,68.261,49.159,68.261z"/>
        <path fill="#FFF"
              d="M50.703,4.554l-18.85,18.979v-8.526H17.25v23.23L6.778,48.782c-1.061,1.069-1.374,2.661-0.799,4.054   c0.575,1.394,1.925,2.3,3.438,2.311h3.653v38.193h14.714V70.134c0-3.075,2.502-5.577,5.577-5.577h4.445   c2.12,0,4.028,1.19,4.98,3.106l0.148,0.297l-0.217,0.252c-1.335,1.547-2.069,3.516-2.069,5.544c0,2.309,0.917,4.473,2.583,6.093   l0.151,0.147v1.146l-0.204,0.15c-1.841,1.354-2.896,3.433-2.896,5.705v6.34h3.013v-6.34c0-1.554,0.874-2.958,2.28-3.665   c0.411-0.209,0.85-0.345,1.3-0.403l0.13-0.014c0.123-0.014,0.257-0.02,0.392-0.02h3.521c0.134,0,0.269,0.006,0.396,0.021   l0.226,0.034c1.983,0.294,3.48,2.035,3.48,4.047v6.34h3.013v-6.34c0-2.418-1.231-4.655-3.295-5.982l-0.564-0.363l0.51-0.437   c1.896-1.625,2.984-3.979,2.984-6.458c0-2.966-1.593-5.763-4.157-7.298l-0.243-0.146v-2.821c0-3.772,3.068-6.841,6.841-6.841h5.248   c3.777,0,6.851,3.069,6.851,6.841v29.846h15.186V55.146h3.148c1.509,0,2.865-0.896,3.456-2.283   c0.597-1.406,0.309-2.964-0.752-4.066L50.703,4.554z M20.263,18.021h8.578v8.546l-8.578,8.638V18.021z M35.583,61.081   c-4.044,0-7.334-3.29-7.334-7.334s3.29-7.333,7.334-7.333c4.045,0,7.335,3.29,7.335,7.333S39.628,61.081,35.583,61.081z    M54.655,73.758c0,3.031-2.466,5.497-5.496,5.497c-3.031,0-5.497-2.466-5.497-5.497s2.466-5.497,5.497-5.497   C52.189,68.261,54.655,70.727,54.655,73.758z M62.734,52.212c-4.92,0-8.922-4.002-8.922-8.921s4.002-8.921,8.922-8.921   c4.919,0,8.921,4.002,8.921,8.921S67.653,52.212,62.734,52.212z M91.224,51.683c-0.057,0.136-0.238,0.45-0.683,0.45h-6.16v38.812   h-9.162V63.493c0-4.04-2.434-7.628-6.199-9.141l-0.923-0.371l0.848-0.52c3.584-2.197,5.724-6,5.724-10.17   c0-6.581-5.354-11.934-11.934-11.934c-6.581,0-11.935,5.354-11.935,11.934c0,4.171,2.14,7.973,5.724,10.17l0.847,0.52l-0.922,0.371   c-3.763,1.513-6.193,5.101-6.193,9.141v1.82l-0.646-0.043c-1.3-0.095-2.604,0.152-3.809,0.673l-0.402,0.174l-0.226-0.376   c-0.757-1.268-1.835-2.326-3.117-3.059l-0.642-0.367l0.579-0.459c2.503-1.983,3.938-4.938,3.938-8.107   c0-5.705-4.642-10.347-10.348-10.347c-5.705,0-10.347,4.642-10.347,10.347c0,3.168,1.436,6.124,3.938,8.107l0.579,0.458   l-0.642,0.367c-2.676,1.532-4.339,4.389-4.339,7.454v20.81h-8.69V52.133H9.428c-0.432,0-0.607-0.312-0.663-0.446   c-0.055-0.133-0.151-0.476,0.152-0.783L50.669,8.865l40.404,42.021C91.38,51.201,91.281,51.548,91.224,51.683z"/>
    </g>
</svg>
