<svg xmlns="http://www.w3.org/2000/svg" viewBox="0 0 847 847" >
    <g><path fill="#25688F" class="fil0" d="M346 477c0,-16 10,-28 27,-36l1 -1c13,-6 31,-9 50,-9 19,0 37,4 51,10 16,8 27,20 27,36l0 141 133 0 4 -236 -216 -150 -211 147 0 239 134 0 0 -141zm41 -6c-4,3 -7,5 -7,6l0 139 88 0 0 -139c0,-1 -3,-3 -8,-6 -9,-4 -22,-6 -36,-6 -14,0 -27,2 -36,6l-1 0zm-257 -36c-7,6 -18,4 -23,-4 -5,-8 -3,-18 4,-23l303 -210c6,-4 14,-4 19,0l302 210c8,5 10,15 5,23 -6,8 -16,10 -24,4l-43 -30 -4 230c-1,10 -8,17 -17,17l-457 0c-9,0 -17,-8 -17,-17l0 -233 -48 33z"/></g>
</svg>
