<svg xmlns="http://www.w3.org/2000/svg" x="0px" y="0px" viewBox="0 0 100 100" xml:space="preserve">
    <path fill="#25688F" d="M10.5273438,21.9638672c-0.1879883,0.1933594-0.2900391,0.4550781-0.2822266,0.7250977  c0.0039062,0.1450195-0.0200195,0.4580078-0.0512695,0.9213867c-0.7016602,10.4233398,0.480957,20.2163086,3.5161133,29.1074219  c5.8339844,17.0908203,17.9057617,29.6079102,35.8803711,37.203125C49.7148438,89.9736328,49.847168,90,49.9794922,90  s0.2646484-0.0263672,0.3891602-0.0791016c17.9755859-7.5957031,30.0473633-20.1132812,35.8803711-37.2050781  c3.034668-8.8911133,4.2172852-18.684082,3.5146484-29.1064453c-0.03125-0.4628906-0.0551758-0.7758789-0.0512695-0.9204102  c0.0078125-0.2700195-0.0942383-0.5317383-0.2827148-0.7255859c-0.1879883-0.1933594-0.4467773-0.3027344-0.7167969-0.3027344  c-17.0229492,0-17.4091797-10.2387695-17.4169922-10.6699219C71.2905273,10.4418945,70.8447266,10,70.2958984,10H29.6621094  c-0.5488281,0-0.9946289,0.4418945-1,0.9907227c0,0.0253906-0.0483398,2.6015625-2.1259766,5.2177734  c-2.8339844,3.5668945-8.121582,5.4521484-15.2915039,5.4521484C10.9746094,21.6606445,10.7158203,21.7700195,10.5273438,21.9638672  z M12.1894531,23.7446289c0.0019531-0.0322266,0.0039062-0.0634766,0.0063477-0.0947266  C27.2421875,23.3105469,30.0322266,14.9208984,30.5463867,12h38.8652344  c0.5141602,2.9208984,3.3041992,11.3105469,18.3505859,11.6499023c0.0019531,0.0307617,0.0039062,0.0620117,0.0063477,0.09375  c1.175293,17.440918-2.1855469,48.9086914-37.7890625,64.1694336C14.3774414,72.652832,11.0151367,41.1850586,12.1894531,23.7446289  z"/>
    <path fill="#25688F" d="M31.3369141,53.7734375h10.2919922v10.2919922c0,0.5522461,0.4477539,1,1,1h14.7421875c0.5522461,0,1-0.4477539,1-1  V53.7734375h10.2919922c0.5522461,0,1-0.4477539,1-1V38.03125c0-0.5522461-0.4477539-1-1-1H58.3710938V26.7392578  c0-0.5522461-0.4477539-1-1-1H42.6289062c-0.5522461,0-1,0.4477539-1,1V37.03125H31.3369141c-0.5522461,0-1,0.4477539-1,1  v14.7421875C30.3369141,53.3256836,30.784668,53.7734375,31.3369141,53.7734375z M32.3369141,39.03125h10.2919922  c0.5522461,0,1-0.4477539,1-1V27.7392578h12.7421875V38.03125c0,0.5522461,0.4477539,1,1,1h10.2919922v12.7421875H57.3710938  c-0.5522461,0-1,0.4477539-1,1v10.2919922H43.6289062V52.7734375c0-0.5522461-0.4477539-1-1-1H32.3369141V39.03125z"/>
</svg>
