<svg xmlns="http://www.w3.org/2000/svg" viewBox="0 0 100 100">
    <switch>
            <g>
                <path fill="#25688F"
                      d="M89.1,6.1H50.3c-4.7,0-8.4,3.8-8.4,8.4v20.5c0,4.6,3.7,8.3,8.3,8.4v5.1c0,2.3,1.4,4.3,3.5,5.2c0.7,0.3,1.4,0.4,2.2,0.4     c1.5,0,2.9-0.6,4-1.7l9.1-9.1h20.3c4.7,0,8.4-3.8,8.4-8.4V14.6C97.5,9.9,93.7,6.1,89.1,6.1z M91.6,35.1c0,1.4-1.2,2.6-2.6,2.6     H67.6c-0.8,0-1.5,0.3-2.1,0.9L56,48v-7.5c0-1.6-1.3-2.9-2.9-2.9h-2.7c-1.4,0-2.6-1.2-2.6-2.6V14.6c0-1.4,1.2-2.6,2.6-2.6h38.8     c1.4,0,2.6,1.2,2.6,2.6V35.1z"/>
                <circle fill="#25688F"
                        cx="57.1" cy="24.8" r="4.1"/>
                <circle fill="#25688F" cx="69.7" cy="24.8" r="4.1"/>
                <circle fill="#25688F" cx="82.2" cy="24.8" r="4.1"/>
                <path fill="#25688F"
                      d="M63.4,69.8l-7.9-6.3c-1.7-1.4-3.9-2.1-6-2.1c-2.8,0-5.5,1.2-7.4,3.4c-0.4,0.5-0.7,0.8-1,1.2c-1.1-0.7-2.9-2-5.8-4.9     c-2.9-2.9-4.2-4.7-4.9-5.8c0.3-0.3,0.7-0.6,1.2-1c4-3.4,4.6-9.3,1.3-13.4L26.5,33c-1.9-2.3-4.6-3.7-7.6-3.7h0     c-1.3,0-2.6,0.3-3.9,0.8c-3.3,1.4-7.9,5.4-8.8,6.4c-6.1,6.1-3.3,15.1-1,19.8c2.9,6.1,8.1,13,15,19.9c6.6,6.6,19.3,17.7,30.3,17.7     c3.7,0,7-1.3,9.4-3.7c1-1,5-5.5,6.4-8.8C68,77.3,66.8,72.5,63.4,69.8z M60.9,79c-0.9,2.2-4.1,6-5.1,7c-1.4,1.4-3.2,2-5.3,2     c-6.7,0-16.6-6.4-26.2-16c-12.5-12.5-19.7-25.7-14-31.4c1-1,4.9-4.2,7-5.2c0.5-0.2,1-0.3,1.5-0.3c1.2,0,2.3,0.5,3,1.5l6.3,7.9     c1.3,1.6,1.1,4-0.5,5.3c-1.6,1.4-2.7,2.4-3,2.7c-2.4,2.4,1.1,7.4,6.4,12.7c4.1,4.1,8.1,7.2,10.8,7.2c0.8,0,1.4-0.2,1.9-0.8     c0.3-0.3,1.3-1.4,2.7-3c0.8-0.9,1.9-1.4,2.9-1.4c0.8,0,1.7,0.3,2.4,0.8l7.9,6.3C61.1,75.5,61.6,77.4,60.9,79z"/>
            </g>
    </switch>
</svg>
