<svg height='100px' width='100px' fill="#25688F" xmlns="http://www.w3.org/2000/svg" viewBox="0 0 100 100">
    <path d="M94.55,36.376c-0.693-0.641-2.175-1.508-3.601-1.113c-0.346,0.096-0.689,0.263-1.018,0.529  c-0.009,0.007-0.021,0.016-0.03,0.024c-0.323,0.263-0.688,0.606-1.084,1.016c-1.062-0.344-2.331-0.357-3.416,0.6  c-1.925,1.697-4.439,6.603-5.499,8.963c-0.266,0.588-0.604,1.268-0.976,1.971c-0.323,0.608-0.673,1.23-1.026,1.829  c-0.315,0.171-0.619,0.376-0.904,0.626c-1.23,1.085-2.576,3.256-3.766,5.172l-0.291,0.468c-2.031,2.305-4.51,3.087-6.451,3.511  c-2.306,0.505-6.557,2.472-8.581,4.254c-1.844,1.625-5.906,6.277-6.398,8.124c-0.091,0.339-0.212,0.713-0.353,1.148  c-0.193,0.601-0.429,1.336-0.683,2.283c-0.154,0.572-0.313,1.223-0.475,1.971c-0.162-0.749-0.32-1.399-0.475-1.971  c-0.253-0.947-0.489-1.683-0.683-2.283c-0.14-0.436-0.261-0.809-0.352-1.148c-0.495-1.847-4.557-6.499-6.4-8.124  c-2.024-1.782-6.272-3.749-8.579-4.254c-1.942-0.424-4.423-1.206-6.453-3.511l-0.289-0.468c-1.189-1.916-2.537-4.087-3.768-5.172  c-0.284-0.25-0.589-0.455-0.902-0.626c-0.355-0.599-0.705-1.221-1.027-1.829c-0.374-0.703-0.714-1.382-0.979-1.971  c-1.058-2.36-3.57-7.267-5.497-8.963c-1.086-0.957-2.352-0.944-3.415-0.6c-0.396-0.41-0.762-0.752-1.085-1.016  c-0.008-0.008-0.021-0.017-0.028-0.024c-0.329-0.266-0.672-0.433-1.018-0.529c-1.428-0.395-2.909,0.473-3.601,1.113L5,36.791  l0.244,0.562c0.071,0.163,0.663,1.521,1.443,3.318c1.653,3.796,4.168,9.559,4.484,10.198c0.171,0.349,0.321,0.736,0.465,1.111  c0.235,0.61,0.458,1.185,0.782,1.636c0.417,0.578,4.328,6.719,4.752,7.418c0.088,0.147,0.239,0.565,0.372,0.934  c0.428,1.197,0.963,2.688,1.985,3.321c0.599,0.376,1.771,1.561,3.25,3.06c0.994,1.009,2.124,2.153,3.434,3.419  c1.487,1.433,2.923,2.504,4.188,3.45c1.699,1.265,3.039,2.266,3.93,3.655c0.46,0.718,0.605,2.676,0.571,5.097  c-0.017,1.174-0.075,2.489-0.165,3.794c0.585-0.042,29.941-0.042,30.528,0c-0.09-1.305-0.148-2.62-0.166-3.794  c-0.034-2.421,0.112-4.379,0.572-5.097c0.891-1.389,2.231-2.39,3.929-3.655c1.268-0.946,2.702-2.017,4.188-3.45  c1.311-1.266,2.441-2.41,3.436-3.419c1.479-1.499,2.647-2.684,3.249-3.06c1.022-0.633,1.557-2.124,1.987-3.321  c0.132-0.369,0.281-0.786,0.371-0.934c0.423-0.7,4.334-6.841,4.751-7.418c0.323-0.451,0.547-1.025,0.78-1.636  c0.146-0.375,0.296-0.762,0.469-1.111c0.314-0.639,2.83-6.402,4.483-10.198c0.779-1.798,1.372-3.155,1.442-3.318L95,36.791  L94.55,36.376z M13.459,38.724c1.365,1.204,3.337,4.757,4.566,7.31c0.185,0.381,0.352,0.741,0.499,1.066  c0.311,0.697,0.75,1.566,1.245,2.476l-2.882-3.247c-0.111-0.163-0.223-0.33-0.343-0.504c-0.185-0.568-0.397-1.12-0.624-1.659  c-0.956-2.287-2.225-4.296-3.434-5.826C12.82,38.352,13.156,38.458,13.459,38.724z M48.98,85.891h-12.4  c0.032-0.858,0.052-1.716,0.049-2.477c-0.01-2.411-0.228-4.504-0.849-5.472c-1.06-1.652-2.586-2.788-4.351-4.106  c-1.225-0.916-2.613-1.948-4.021-3.308c-1.296-1.252-2.417-2.387-3.405-3.389c-1.682-1.704-2.792-2.828-3.565-3.311  c-0.513-0.317-0.991-1.648-1.276-2.442c-0.189-0.529-0.34-0.945-0.517-1.24c-0.448-0.74-4.382-6.916-4.829-7.537  c-0.195-0.271-0.377-0.746-0.574-1.25c-0.158-0.41-0.322-0.833-0.526-1.25c-0.302-0.614-2.961-6.705-4.913-11.192  c-0.249-0.573-0.486-1.12-0.708-1.627c0.498-0.31,1.287-0.646,1.889-0.159c0.019,0.014,0.04,0.033,0.058,0.05  c0.166,0.137,0.345,0.297,0.541,0.485c0.192,0.186,0.395,0.396,0.608,0.628c0.184,0.201,0.373,0.419,0.568,0.651  c0.597,0.717,1.23,1.579,1.841,2.549c0.909,1.45,1.76,3.146,2.342,4.975l0.037,0.119l0.071,0.101c1.228,1.82,2.09,3.008,2.681,3.776  c-0.108,0.086-0.213,0.177-0.312,0.277c-1.45,1.457-1.018,2.523,1.473,6.436c0.405,0.752,0.664,1.385,0.873,1.895  c0.138,0.335,0.257,0.624,0.387,0.883c0.096,0.188,0.195,0.479,0.291,0.762c0.199,0.595,0.39,1.157,0.756,1.503  c0.055,0.052,0.159,0.144,0.313,0.283c2.249,2.01,3.605,3.394,4.036,4.113c0.892,1.486,2.641,3.017,2.712,3.083l1.133-1.299  c-0.02-0.016-1.28-1.125-2.087-2.249c-0.103-0.139-0.196-0.282-0.28-0.421c-0.694-1.16-2.698-3.021-4.366-4.512  c-0.117-0.105-0.217-0.195-0.263-0.238c-0.088-0.122-0.235-0.553-0.324-0.814c-0.114-0.34-0.233-0.692-0.385-0.99  c-0.099-0.198-0.205-0.459-0.33-0.758c-0.226-0.552-0.508-1.237-0.959-2.079l-0.015-0.028l-0.018-0.027  c-2.355-3.695-2.186-3.867-1.728-4.323c0.063-0.066,0.13-0.122,0.199-0.177c0.044-0.032,0.088-0.062,0.13-0.09  c0.194-0.126,0.398-0.211,0.609-0.261c0.43-0.1,0.885-0.052,1.314,0.103c0.353,0.128,0.686,0.329,0.969,0.579  c0.566,0.498,1.22,1.361,1.868,2.322c0.542,0.806,1.084,1.68,1.572,2.463l0.335,0.537l0.037,0.059c-0.001,0,0.044,0.053,0.044,0.053  c2.396,2.751,5.385,3.659,7.426,4.107c2.059,0.448,6.001,2.273,7.806,3.862c1.952,1.72,5.55,6.061,5.873,7.274  c0.103,0.383,0.229,0.778,0.379,1.236c0.248,0.771,0.546,1.702,0.86,2.982c0.263,1.079,0.538,2.407,0.803,4.107  c0.038,0.254,0.077,0.558,0.115,0.904V85.891z M81.475,47.1c0.146-0.325,0.315-0.685,0.498-1.066  c1.231-2.553,3.203-6.106,4.567-7.31c0.302-0.266,0.638-0.372,0.972-0.384c-1.208,1.53-2.478,3.54-3.434,5.826  c-0.225,0.54-0.438,1.091-0.624,1.659c-0.12,0.174-0.229,0.341-0.343,0.504l-2.88,3.247C80.724,48.666,81.165,47.797,81.475,47.1z   M92.193,38.917c-1.949,4.487-4.61,10.578-4.91,11.192c-0.206,0.416-0.369,0.839-0.528,1.25c-0.195,0.504-0.378,0.979-0.571,1.25  c-0.449,0.622-4.383,6.797-4.831,7.537c-0.176,0.295-0.327,0.711-0.517,1.24c-0.285,0.794-0.761,2.125-1.273,2.442  c-0.775,0.482-1.887,1.606-3.566,3.311c-0.989,1.002-2.109,2.136-3.408,3.389c-1.407,1.36-2.796,2.393-4.02,3.308  c-1.766,1.318-3.29,2.455-4.35,4.106c-0.622,0.968-0.84,3.062-0.848,5.472c-0.004,0.761,0.015,1.619,0.046,2.477h-12.4v-3.869  c0.037-0.347,0.076-0.65,0.116-0.904c0.263-1.7,0.539-3.028,0.802-4.107c0.315-1.281,0.612-2.211,0.862-2.982  c0.149-0.458,0.274-0.854,0.376-1.236c0.324-1.214,3.918-5.555,5.872-7.274c1.806-1.589,5.75-3.414,7.807-3.862  c2.041-0.448,5.031-1.356,7.427-4.107c0,0,0.045-0.053,0.044-0.053l0.039-0.059l0.332-0.537c0.487-0.784,1.029-1.658,1.573-2.463  c0.65-0.96,1.303-1.824,1.869-2.322c0.282-0.25,0.617-0.45,0.97-0.579c0.427-0.155,0.882-0.203,1.313-0.103  c0.212,0.05,0.417,0.135,0.609,0.261c0.042,0.028,0.088,0.059,0.132,0.09c0.068,0.055,0.135,0.111,0.2,0.177  c0.456,0.456,0.627,0.628-1.73,4.323l-0.018,0.027l-0.013,0.028c-0.453,0.841-0.735,1.527-0.961,2.079  c-0.125,0.299-0.229,0.561-0.332,0.758c-0.149,0.298-0.267,0.649-0.382,0.99c-0.089,0.262-0.234,0.692-0.322,0.814  c-0.048,0.043-0.147,0.133-0.264,0.238c-1.67,1.491-3.674,3.352-4.367,4.512c-0.083,0.139-0.179,0.282-0.28,0.421  c-0.806,1.124-2.068,2.232-2.086,2.249l1.13,1.299c0.073-0.066,1.824-1.597,2.715-3.083c0.43-0.72,1.788-2.103,4.036-4.113  c0.156-0.14,0.256-0.231,0.312-0.283c0.366-0.346,0.557-0.908,0.758-1.503c0.096-0.282,0.194-0.574,0.289-0.762  c0.13-0.259,0.249-0.548,0.385-0.883c0.211-0.51,0.472-1.143,0.874-1.895c2.492-3.912,2.926-4.979,1.474-6.436  c-0.099-0.1-0.203-0.19-0.312-0.277c0.592-0.769,1.454-1.957,2.683-3.776l0.069-0.101l0.038-0.119  c0.583-1.829,1.434-3.525,2.343-4.975c0.608-0.97,1.243-1.832,1.839-2.549c0.195-0.232,0.386-0.451,0.571-0.651  c0.21-0.232,0.414-0.442,0.605-0.628c0.196-0.188,0.375-0.349,0.542-0.485c0.02-0.018,0.041-0.036,0.058-0.05  c0.602-0.487,1.391-0.151,1.889,0.159C92.683,37.797,92.444,38.344,92.193,38.917z M43.396,52.549h13.438v-13.61H69.81V25.732  H56.832l0.001-13.495H43.396v13.495H30.417v13.207h12.979V52.549z">
    </path>
</svg>
